<?xml version="1.0" encoding="utf-8"?><svg xmlns="http://www.w3.org/2000/svg" xmlns:xlink="http://www.w3.org/1999/xlink" width="1920" height="937" preserveAspectRatio="xMidYMid" viewBox="0 0 1920 937" style="z-index:1;margin-right:-2px;display:block;background-repeat-y:initial;background-repeat-x:initial;background-color:rgb(255, 255, 255);animation-play-state:paused" ><g transform="translate(960,468.5) scale(1,1) translate(-960,-468.5)" style="transform:matrix(1, 0, 0, 1, 0, 0);animation-play-state:paused" ><path id="path0" d="M 1602.140627373156 57.532060692382494
c 0 22.159961052999925 -5.422118129989343 6.3650951960744475 -11.78721332606379 6.3650951960744475
S 1578.5662007210285 79.69202174538242 1578.5662007210285 57.532060692382494
s 5.422118129989343 -6.3650951960744475 11.78721332606379 -6.3650951960744475
S 1602.140627373156 35.37209963938257 1602.140627373156 57.532060692382494
z" fill="none" stroke="none" style="animation-play-state:paused" ></path>


<circle cx="0" cy="0" r="4.663142818524194" fill="#9df871" transform="translate(1597.7938232421875 68.4679183959961)" style="animation-play-state:paused" ></circle>
<path id="path1" d="M 1221.2555947258425 242.06323318887294
c 0 30.08585943527354 -7.3614336916094825 8.641683029280697 -16.00311672089018 8.641683029280697
S 1189.2493612840622 272.1490926241465 1189.2493612840622 242.06323318887294
s 7.3614336916094825 -8.641683029280697 16.00311672089018 -8.641683029280697
S 1221.2555947258425 211.9773737535994 1221.2555947258425 242.06323318887294
z" fill="none" stroke="none" style="animation-play-state:paused" ></path>


<circle cx="0" cy="0" r="4.5051694902437145" fill="#de9dd6" transform="translate(1189.39697265625 248.50169372558594)" style="animation-play-state:paused" ></circle>
<path id="path2" d="M 1513.6143570923034 373.70250211098977
c 0 27.08016238039086 -6.625997178180741 7.778344513516523 -14.404341691697265 7.778344513516523
S 1484.805673708909 400.7826644913806 1484.805673708909 373.70250211098977
s 6.625997178180741 -7.778344513516523 14.404341691697265 -7.778344513516523
S 1513.6143570923034 346.6223397305989 1513.6143570923034 373.70250211098977
z" fill="none" stroke="none" style="animation-play-state:paused" ></path>


<circle cx="0" cy="0" r="7.648107442600758" fill="#51cacc" transform="translate(1512.1136474609375 360.3079528808594)" style="animation-play-state:paused" ></circle>
<path id="path3" d="M 1823.0399614588016 354.44200476184966
c 0 36.21795060151292 -8.861838976965926 10.40302836426435 -19.264867341230275 10.40302836426435
S 1784.5102267763411 390.6599553633626 1784.5102267763411 354.44200476184966
s 8.861838976965926 -10.40302836426435 19.264867341230275 -10.40302836426435
S 1823.0399614588016 318.2240541603367 1823.0399614588016 354.44200476184966
z" fill="none" stroke="none" style="animation-play-state:paused" ></path>


<circle cx="0" cy="0" r="4.929382445653902" fill="#ff708e" transform="translate(1822.6884765625 364.7369689941406)" style="animation-play-state:paused" ></circle>
<path id="path4" d="M 686.8676056075465 723.6395353797659
c 0 28.76017550434121 -7.037064219147316 8.260901474651199 -15.297965693798513 8.260901474651199
S 656.2716742199495 752.3997108841071 656.2716742199495 723.6395353797659
s 7.037064219147316 -8.260901474651199 15.297965693798513 -8.260901474651199
S 686.8676056075465 694.8793598754247 686.8676056075465 723.6395353797659
z" fill="none" stroke="none" style="animation-play-state:paused" ></path>


<circle cx="0" cy="0" r="4.682619685621889" fill="#de9dd6" transform="translate(656.3380737304688 719.2293090820312)" style="animation-play-state:paused" ></circle>
<path id="path5" d="M 444.1542554024978 671.2209078593202
c 0 27.64769844103847 -6.764862384509412 7.94136019051105 -14.706222575020462 7.94136019051105
S 414.74181025245684 698.8686063003586 414.74181025245684 671.2209078593202
s 6.764862384509412 -7.94136019051105 14.706222575020462 -7.94136019051105
S 444.1542554024978 643.5732094182817 444.1542554024978 671.2209078593202
z" fill="none" stroke="none" style="animation-play-state:paused" ></path>


<circle cx="0" cy="0" r="5.182310817794758" fill="#51cacc" transform="translate(444.13885498046875 669.0576782226562)" style="animation-play-state:paused" ></circle>
<path id="path6" d="M 1063.1620853617842 484.748908745097
c 0 30.11453646330659 -7.36845041123459 8.649920047971042 -16.01837045920563 8.649920047971042
S 1031.1253444433728 514.8634452084036 1031.1253444433728 484.748908745097
s 7.36845041123459 -8.649920047971042 16.01837045920563 -8.649920047971042
S 1063.1620853617842 454.63437228179043 1063.1620853617842 484.748908745097
z" fill="none" stroke="none" style="animation-play-state:paused" ></path>


<circle cx="0" cy="0" r="7.518484458574233" fill="#ff708e" transform="translate(1031.212890625 489.87506103515625)" style="animation-play-state:paused" ></circle>
<path id="path7" d="M 1890.4820913188246 904.4877433140423
c 0 18.86791385908848 -4.616617220840797 5.419507172291372 -10.03612439313217 5.419507172291372
S 1870.40984253256 923.3556571731308 1870.40984253256 904.4877433140423
s 4.616617220840797 -5.419507172291372 10.03612439313217 -5.419507172291372
S 1890.4820913188246 885.6198294549538 1890.4820913188246 904.4877433140423
z" fill="none" stroke="none" style="animation-play-state:paused" ></path>


<circle cx="0" cy="0" r="6.59219211123554" fill="#51cacc" transform="translate(1876.5675048828125 911.7333374023438)" style="animation-play-state:paused" ></circle>
<path id="path8" d="M 1077.711621431747 865.4187938234451
c 0 35.05957594863443 -8.57840688104885 10.070303729926911 -18.648710610975762 10.070303729926911
S 1040.4142002097956 900.4783697720795 1040.4142002097956 865.4187938234451
s 8.57840688104885 -10.070303729926911 18.648710610975762 -10.070303729926911
S 1077.711621431747 830.3592178748106 1077.711621431747 865.4187938234451
z" fill="none" stroke="none" style="animation-play-state:paused" ></path>


<circle cx="0" cy="0" r="7.818780869062832" fill="#ff708e" transform="translate(1041.5657958984375 880.6746215820312)" style="animation-play-state:paused" ></circle>
<path id="path9" d="M 537.7398102210035 560.2953900958173
c 0 32.20207993880081 -7.8792323254512615 9.249533599442787 -17.128765924894047 9.249533599442787
S 503.4822783712154 592.4974700346181 503.4822783712154 560.2953900958173
s 7.8792323254512615 -9.249533599442787 17.128765924894047 -9.249533599442787
S 537.7398102210035 528.0933101570165 537.7398102210035 560.2953900958173
z" fill="none" stroke="none" style="animation-play-state:paused" ></path>


<circle cx="0" cy="0" r="4.324967019839346" fill="#51cacc" transform="translate(537.6779174804688 555.76025390625)" style="animation-play-state:paused" ></circle>
<path id="path10" d="M 1342.7045566374602 582.0336551280026
c 0 31.22785243025488 -7.6408575095304485 8.969702293796615 -16.610559803327064 8.969702293796615
S 1309.483437030806 613.2615075582574 1309.483437030806 582.0336551280026
s 7.6408575095304485 -8.969702293796615 16.610559803327064 -8.969702293796615
S 1342.7045566374602 550.8058026977477 1342.7045566374602 582.0336551280026
z" fill="none" stroke="none" style="animation-play-state:paused" ></path>


<circle cx="0" cy="0" r="5.321792562283259" fill="#e0ff77" transform="translate(1316.83935546875 596.4474487304688)" style="animation-play-state:paused" ></circle>
<path id="path11" d="M 629.5912532773597 738.648806927991
c 0 21.718267135960883 -5.314044086458512 6.238225666712168 -11.55226975317068 6.238225666712168
S 606.4867137710183 760.3670740639519 606.4867137710183 738.648806927991
s 5.314044086458512 -6.238225666712168 11.55226975317068 -6.238225666712168
S 629.5912532773597 716.9305397920301 629.5912532773597 738.648806927991
z" fill="none" stroke="none" style="animation-play-state:paused" ></path>


<circle cx="0" cy="0" r="4.384319395366227" fill="#51cacc" transform="translate(629.5908813476562 738.8262939453125)" style="animation-play-state:paused" ></circle>
<path id="path12" d="M 696.2595688603847 373.85278391830843
c 0 21.1055841176479 -5.164132284105337 6.06224224655844 -11.226374530663776 6.06224224655844
S 673.8068197990572 394.9583680359563 673.8068197990572 373.85278391830843
s 5.164132284105337 -6.06224224655844 11.226374530663776 -6.06224224655844
S 696.2595688603847 352.74719980066055 696.2595688603847 373.85278391830843
z" fill="none" stroke="none" style="animation-play-state:paused" ></path>


<circle cx="0" cy="0" r="5.248809547465742" fill="#e0ff77" transform="translate(695.1087646484375 363.44744873046875)" style="animation-play-state:paused" ></circle>
<path id="path13" d="M 69.31226769658727 912.1229294456674
c 0 21.58843400832378 -5.282276406291988 6.20093317260364 -11.483209578895629 6.20093317260364
S 46.34584853879602 933.7113634539912 46.34584853879602 912.1229294456674
s 5.282276406291988 -6.20093317260364 11.483209578895629 -6.20093317260364
S 69.31226769658727 890.5344954373436 69.31226769658727 912.1229294456674
z" fill="none" stroke="none" style="animation-play-state:paused" ></path>


<circle cx="0" cy="0" r="7.355071875377633" fill="#e0ff77" transform="translate(69.29515075683594 914.1328125)" style="animation-play-state:paused" ></circle>
<path id="path14" d="M 488.6454535037588 522.9220905202569
c 0 34.37469985201179 -8.410830814853947 9.87358400004594 -18.284414814899886 9.87358400004594
S 452.076623873959 557.2967903722687 452.076623873959 522.9220905202569
s 8.410830814853947 -9.87358400004594 18.284414814899886 -9.87358400004594
S 488.6454535037588 488.54739066824516 488.6454535037588 522.9220905202569
z" fill="none" stroke="none" style="animation-play-state:paused" ></path>


<circle cx="0" cy="0" r="6.3024505552862475" fill="#de9dd6" transform="translate(465.3955993652344 511.2747497558594)" style="animation-play-state:paused" ></circle>
<path id="path15" d="M 475.16831975484445 417.6022148203984
c 0 27.135956430378585 -6.639648913816036 7.794370464044913 -14.434019377860949 7.794370464044913
S 446.3002809991226 444.738171250777 446.3002809991226 417.6022148203984
s 6.639648913816036 -7.794370464044913 14.434019377860949 -7.794370464044913
S 475.16831975484445 390.4662583900198 475.16831975484445 417.6022148203984
z" fill="none" stroke="none" style="animation-play-state:paused" ></path>


<circle cx="0" cy="0" r="6.161415059518145" fill="#de9dd6" transform="translate(458.5398864746094 409.33673095703125)" style="animation-play-state:paused" ></circle>
<path id="path16" d="M 91.09800624395533 449.02688990504606
c 0 30.134669212850827 -7.373376509527329 8.655702859010344 -16.029079368537673 8.655702859010344
S 59.03984750687997 479.1615591178969 59.03984750687997 449.02688990504606
s 7.373376509527329 -8.655702859010344 16.029079368537673 -8.655702859010344
S 91.09800624395533 418.8922206921952 91.09800624395533 449.02688990504606
z" fill="none" stroke="none" style="animation-play-state:paused" ></path>


<circle cx="0" cy="0" r="4.820178757622383" fill="#de9dd6" transform="translate(91.09579467773438 449.86981201171875)" style="animation-play-state:paused" ></circle>
<path id="path17" d="M 317.5987724772721 910.4307504126842
c 0 35.13692954963191 -8.597333825973763 10.092522317447463 -18.689856143421228 10.092522317447463
S 280.2190601904296 945.5676799623161 280.2190601904296 910.4307504126842
s 8.597333825973763 -10.092522317447463 18.689856143421228 -10.092522317447463
S 317.5987724772721 875.2938208630524 317.5987724772721 910.4307504126842
z" fill="none" stroke="none" style="animation-play-state:paused" ></path>


<circle cx="0" cy="0" r="5.174831501842628" fill="#9df871" transform="translate(313.0977783203125 929.0914306640625)" style="animation-play-state:paused" ></circle>
<path id="path18" d="M 1673.7077503612704 481.036166021089
c 0 20.247769419127973 -4.954241453616418 5.815848662941013 -10.770090116557432 5.815848662941013
S 1652.1675701281556 501.28393544021696 1652.1675701281556 481.036166021089
s 4.954241453616418 -5.815848662941013 10.770090116557432 -5.815848662941013
S 1673.7077503612704 460.78839660196104 1673.7077503612704 481.036166021089
z" fill="none" stroke="none" style="animation-play-state:paused" ></path>


<circle cx="0" cy="0" r="7.156695970186881" fill="#de9dd6" transform="translate(1669.8851318359375 470.9339599609375)" style="animation-play-state:paused" ></circle>
<path id="path19" d="M 957.1774880448123 667.1629050776809
c 0 35.80230671941226 -8.760138878154063 10.283641291746076 -19.04378016990014 10.283641291746076
S 919.089927705012 702.9652117970932 919.089927705012 667.1629050776809
s 8.760138878154063 -10.283641291746076 19.04378016990014 -10.283641291746076
S 957.1774880448123 631.3605983582686 957.1774880448123 667.1629050776809
z" fill="none" stroke="none" style="animation-play-state:paused" ></path>


<circle cx="0" cy="0" r="6.852816118449873" fill="#de9dd6" transform="translate(956.9888305664062 659.2515869140625)" style="animation-play-state:paused" ></circle>
<path id="path20" d="M 1117.7578061269116 811.6150743311387
c 0 22.816797719499974 -5.5828334845585035 6.5537610470904175 -12.136594531648921 6.5537610470904175
S 1093.484617063614 834.4318720506386 1093.484617063614 811.6150743311387
s 5.5828334845585035 -6.5537610470904175 12.136594531648921 -6.5537610470904175
S 1117.7578061269116 788.7982766116387 1117.7578061269116 811.6150743311387
z" fill="none" stroke="none" style="animation-play-state:paused" ></path>


<circle cx="0" cy="0" r="4.144618661374489" fill="#ff708e" transform="translate(1093.568359375 807.303955078125)" style="animation-play-state:paused" ></circle>
<path id="path21" d="M 292.2006500858423 561.9713210894627
c 0 33.20894081622066 -8.125591901841226 9.538738319552744 -17.664330221393968 9.538738319552744
S 256.87198964305435 595.1802619056833 256.87198964305435 561.9713210894627
s 8.125591901841226 -9.538738319552744 17.664330221393968 -9.538738319552744
S 292.2006500858423 528.762380273242 292.2006500858423 561.9713210894627
z" fill="none" stroke="none" style="animation-play-state:paused" ></path>


<circle cx="0" cy="0" r="7.146196916677262" fill="#de9dd6" transform="translate(257.0933532714844 570.067138671875)" style="animation-play-state:paused" ></circle>
<path id="path22" d="M 723.795907201998 152.2191707219396
c 0 28.094615250181185 -6.874214369725182 8.069729912286085 -14.943944282011268 8.069729912286085
S 693.9080186379756 180.3137859721208 693.9080186379756 152.2191707219396
s 6.874214369725182 -8.069729912286085 14.943944282011268 -8.069729912286085
S 723.795907201998 124.12455547175841 723.795907201998 152.2191707219396
z" fill="none" stroke="none" style="animation-play-state:paused" ></path>


<circle cx="0" cy="0" r="7.797952019008798" fill="#ff708e" transform="translate(693.9314575195312 149.54151916503906)" style="animation-play-state:paused" ></circle>
<path id="path23" d="M 1045.0903155121814 418.6805561325146
c 0 33.3054239245049 -8.149199470889497 9.566451552783324 -17.71565102367282 9.566451552783324
S 1009.6590134648359 451.9859800570195 1009.6590134648359 418.6805561325146
s 8.149199470889497 -9.566451552783324 17.71565102367282 -9.566451552783324
S 1045.0903155121814 385.3751322080097 1045.0903155121814 418.6805561325146
z" fill="none" stroke="none" style="animation-play-state:paused" ></path>


<circle cx="0" cy="0" r="4.6296718786918" fill="#e0ff77" transform="translate(1009.70166015625 422.5658264160156)" style="animation-play-state:paused" ></circle>
<path id="path24" d="M 1752.8351482603148 870.7096064773301
c 0 33.13119160990606 -8.10656815987063 9.516406100717699 -17.62297426058833 9.516406100717699
S 1717.5891997391382 903.8407980872362 1717.5891997391382 870.7096064773301
s 8.10656815987063 -9.516406100717699 17.62297426058833 -9.516406100717699
S 1752.8351482603148 837.578414867424 1752.8351482603148 870.7096064773301
z" fill="none" stroke="none" style="animation-play-state:paused" ></path>


<circle cx="0" cy="0" r="7.881904456353563" fill="#ff708e" transform="translate(1718.339111328125 883.557373046875)" style="animation-play-state:paused" ></circle>
<path id="path25" d="M 1251.398510082397 487.381337089322
c 0 29.741623181458607 -7.27720567205902 8.542806658504068 -15.820012330563088 8.542806658504068
S 1219.758485421271 517.1229602707806 1219.758485421271 487.381337089322
s 7.27720567205902 -8.542806658504068 15.820012330563088 -8.542806658504068
S 1251.398510082397 457.63971390786344 1251.398510082397 487.381337089322
z" fill="none" stroke="none" style="animation-play-state:paused" ></path>


<circle cx="0" cy="0" r="5.42954753826906" fill="#51cacc" transform="translate(1223.550048828125 471.5813903808594)" style="animation-play-state:paused" ></circle>
<path id="path26" d="M 57.03686337364013 356.94508298813463
c 0 28.739612539926828 -7.032032855514011 8.254995091255578 -15.287027946769589 8.254995091255578
S 26.46280748010095 385.68469552806147 26.46280748010095 356.94508298813463
s 7.032032855514011 -8.254995091255578 15.287027946769589 -8.254995091255578
S 57.03686337364013 328.2054704482078 57.03686337364013 356.94508298813463
z" fill="none" stroke="none" style="animation-play-state:paused" ></path>


<circle cx="0" cy="0" r="6.97343548836836" fill="#de9dd6" transform="translate(47.18756103515625 367.6081848144531)" style="animation-play-state:paused" ></circle>
<path id="path27" d="M 1333.0137789908104 559.3033771202623
c 0 25.326337026142358 -6.196869697885895 7.274586167083444 -13.47145586496934 7.274586167083444
S 1306.0708672608716 584.6297141464047 1306.0708672608716 559.3033771202623
s 6.196869697885895 -7.274586167083444 13.47145586496934 -7.274586167083444
S 1333.0137789908104 533.97704009412 1333.0137789908104 559.3033771202623
z" fill="none" stroke="none" style="animation-play-state:paused" ></path>


<circle cx="0" cy="0" r="7.8935445331955565" fill="#9df871" transform="translate(1332.704833984375 551.4345092773438)" style="animation-play-state:paused" ></circle>
<path id="path28" d="M 177.71072030336566 848.6840430437735
c 0 19.07481100392175 -4.667240990321279 5.478935075594546 -10.146176065915824 5.478935075594546
S 157.418368171534 867.7588540476952 157.418368171534 848.6840430437735
s 4.667240990321279 -5.478935075594546 10.146176065915824 -5.478935075594546
S 177.71072030336566 829.6092320398518 177.71072030336566 848.6840430437735
z" fill="none" stroke="none" style="animation-play-state:paused" ></path>


<circle cx="0" cy="0" r="5.698606702129895" fill="#de9dd6" transform="translate(177.4259033203125 842.29052734375)" style="animation-play-state:paused" ></circle>
<path id="path29" d="M 106.14496110980247 880.018522378507
c 0 30.72416402954379 -7.51761460297348 8.825025838273216 -16.342640441246697 8.825025838273216
S 73.45968022730906 910.7426864080508 73.45968022730906 880.018522378507
s 7.51761460297348 -8.825025838273216 16.342640441246697 -8.825025838273216
S 106.14496110980247 849.2943583489632 106.14496110980247 880.018522378507
z" fill="none" stroke="none" style="animation-play-state:running" ></path>


<circle cx="0" cy="0" r="6.183033584592629" fill="#9df871" transform="translate(75.02919006347656 865.074462890625)" style="animation-play-state:paused" ></circle></g></svg>